<svg viewBox="0 0 48 48" xmlns="http://www.w3.org/2000/svg" xmlns:svg="http://www.w3.org/2000/svg" xmlns:xlink="http://www.w3.org/1999/xlink">
    <g>
        <title>Layer 1</title>
        <path id="svg_1" d="m29,31l0,0c0,0 -1,4 -5,4s-5,-4 -5,-4s-11,1.986 -11,13l32,0c0,-10.975 -11,-13 -11,-13" fill="#4FC3F7" />
        <path id="svg_2" d="m24,37c-5,0 -5,-6 -5,-6l0,-6l10,0l0,6c0,0 0,6 -5,6z" fill="#FF9800" />
        <g id="svg_3">
            <path id="svg_4" d="m35,19c0,1.105 -0.895,2 -2,2s-2,-0.895 -2,-2s0.895,-2 2,-2s2,0.895 2,2" fill="#FFA726" />
            <path id="svg_5" d="m17,19c0,1.105 -0.895,2 -2,2s-2,-0.895 -2,-2s0.895,-2 2,-2s2,0.895 2,2" fill="#FFA726" />
        </g>
        <path id="svg_6" d="m33,13c0,-7.635 -18,-4.971 -18,0l0,7c0,4.971 4.029,9 9,9c4.971,0 9,-4.029 9,-9l0,-7z" fill="#FFB74D" />
        <path id="svg_7" d="m24,4c-6.075,0 -10,4.925 -10,11l0,2.284l2,1.716l0,-5l12,-4l4,4l0,5l2,-1.741l0,-2.259c0,-4.025 -1.038,-8.015 -6,-9l-1,-2l-3,0z" fill="#424242" />
        <g id="svg_8">
            <path id="svg_9" d="m27,19c0,0.552 0.448,1 1,1s1,-0.448 1,-1s-0.448,-1 -1,-1s-1,0.448 -1,1" fill="#784719" />
            <path id="svg_10" d="m19,19c0,0.552 0.448,1 1,1s1,-0.448 1,-1s-0.448,-1 -1,-1s-1,0.448 -1,1" fill="#784719" />
        </g>
        <path id="svg_11" d="m24,37c5,0 6.745,-3.93 6.951,-5.428c-1.157,-0.424 -1.951,-0.572 -1.951,-0.572s-1,4 -5,4s-5,-4 -5,-4s-0.794,0.146 -1.952,0.566c0.204,1.495 1.952,5.434 6.952,5.434z" fill="#01579B" />
        <use x="-5.78128" y="-6.78656" transform="matrix(1.175366070074942,0,0,1.179702108338573,2.8143062285235145,3.9753950219701384) " xlink:href="#svg_13" id="svg_14" />
        <g id="svg_15" />
    </g>
    <defs>
        <symbol id="svg_13" viewBox="0 0 48 48" xmlns:xlink="http://www.w3.org/1999/xlink" xmlns="http://www.w3.org/2000/svg">
            <g id="svg_12">
                <path fill="none" stroke-width="4" stroke="rgb(83.529412%,0%,0%)" stroke-miterlimit="10" d="m37.03516,11.03516l-26,26" />
                <path fill-rule="nonzero" fill="rgb(83.529412%,0%,0%)" d="m24,4c-10.99609,0 -20,9.00391 -20,20c0,10.99609 9.00391,20 20,20c10.99609,0 20,-9.00391 20,-20c0,-10.99609 -9.00391,-20 -20,-20zm0,36c-8.83594,0 -16,-7.16406 -16,-16c0,-8.83594 7.16406,-16 16,-16c8.83594,0 16,7.16406 16,16c0,8.83594 -7.16406,16 -16,16z" />
            </g>
        </symbol>
    </defs>
</svg>