<?xml version="1.0" encoding="utf-8"?><!-- Generator: Adobe Illustrator 15.0.0, SVG Export Plug-In . SVG Version: 6.00 Build 0)  --><!DOCTYPE svg PUBLIC "-//W3C//DTD SVG 1.1//EN" "http://www.w3.org/Graphics/SVG/1.1/DTD/svg11.dtd"><svg version="1.1" xmlns="http://www.w3.org/2000/svg" xmlns:xlink="http://www.w3.org/1999/xlink" x="0px" y="0px" viewBox="0 0 48 48" enable-background="new 0 0 48 48" xml:space="preserve">

<polygon fill="#FF5722" points="40,45 8,45 8,3 30,3 40,13 " id="svg_1" />

<polygon fill="#FBE9E7" points="38.5,14 29,14 29,4.5 " id="svg_2" />

<path fill="none" stroke="#FFFFFF" stroke-width="2" stroke-miterlimit="10" d="m34,31.5c0,-4.2 -22.8,4.1 -18.5,6.4c3.5,1.9 11.9,-18.9 7.7,-18.9c-4.1,0 2.6,13.6 8.8,13.6c1.5,0 2,-0.3 2,-1.1z" id="svg_3" />

<g stroke="null" id="svg_4">
<path stroke="null" id="svg_5" d="m35.05691,18.76109c-3.76401,0 -6.84366,3.07965 -6.84366,6.84366l0,2.73747l2.73747,0l0,-2.73747c0,-2.25841 1.84779,-4.1062 4.1062,-4.1062s4.1062,1.84779 4.1062,4.1062l0,2.73747l2.73747,0l0,-2.73747c0,-3.76401 -3.07965,-6.84366 -6.84366,-6.84366z" fill="#424242" />

<path stroke="null" id="svg_6" d="m43.26931,46.13574l-16.42479,0c-1.50561,0 -2.73747,-1.23186 -2.73747,-2.73747l0,-12.31859c0,-1.50561 1.23186,-2.73747 2.73747,-2.73747l16.42479,0c1.50561,0 2.73747,1.23186 2.73747,2.73747l0,12.31859c0,1.50561 -1.23186,2.73747 -2.73747,2.73747z" fill="#FB8C00" />

<circle stroke="null" id="svg_7" r="2.0531" cy="37.23898" cx="35.05691" fill="#C76E00" />
    </g>
</svg>